<svg aria-hidden="true" style="width:0;height:0;position:absolute;overflow:hidden" xmlns="http://www.w3.org/2000/svg"><defs><symbol id="icon-logo" viewBox="0 0 34 32"><path d="M17.184 14.109c1.613-4.366-1.728-6.756-3.942-8.327-.424-.321-.847-.621-1.19-.895A4.17 4.17 0 0 1 10.726.546l-.007.029a.458.458 0 0 0-.348-.566l-.003-.001a.46.46 0 0 0-.249.019l.003-.001a7.497 7.497 0 0 0-2.064 1.23l.011-.009a4.867 4.867 0 0 0-1.901 3.846v.001a5.607 5.607 0 0 0-1.096 1.144 4.158 4.158 0 0 0-.808 2.691v-.01a5.3 5.3 0 0 0-1.608 5.021l-.006-.035a1.438 1.438 0 0 0-.638 1.629l-.002-.01a1.44 1.44 0 0 0 1.382 1.046h.042v2.485a.95.95 0 0 0 .949.949h.745l1.208 10.429a.947.947 0 0 0 .94.845H12.301a.96.96 0 0 0 .949-.84v-.005l1.207-10.429h.741a.953.953 0 0 0 .952-.95V16.57h.029a1.446 1.446 0 0 0 1.333-2.005l.004.01a1.401 1.401 0 0 0-.316-.47l-.013.004zM6.315 6.188c.61 2.285 2.964 3.183 5.111 3.987a.461.461 0 1 0 .329-.844h-.003C9.44 8.456 7.259 7.642 7.095 5.307A3.891 3.891 0 0 1 8.63 1.966l.01-.007a6.926 6.926 0 0 1 1.033-.709 5.387 5.387 0 0 0 .001.898l-.001-.02a4.996 4.996 0 0 0 1.779 3.468l.008.006c.351.3.787.608 1.27.937 1.114.798 2.38 1.689 3.184 2.897.503.717.803 1.607.803 2.568a4.48 4.48 0 0 1-.352 1.748l.011-.03h-1.871c-3.858 0-8.291-1.064-9.167-4.045a3.399 3.399 0 0 1 .996-3.464l.003-.003-.02-.021zm3.472 14.395 1.415 1.41-1.415 1.411-1.415-1.419 1.415-1.401zm3.243 3.702-1.168 1.165-1.415-1.411 1.415-1.406 1.228 1.221-.059.43zM9.787 27.52l-1.415-1.411 1.415-1.41 1.415 1.41-1.415 1.411zm-.648-3.471L7.725 25.46l-1.176-1.174-.051-.422 1.227-1.221 1.415 1.406zm-2.065 2.06-.284.283-.072-.642.355.359zm-.149 1.445.8-.798 1.555 1.563a.829.829 0 0 0 .029.093H7.022l-.098-.857zm4.929-.799.8.798-.098.845h-2.349l1.647-1.642zm.932-.362-.284-.284.36-.359-.076.642zm.422-3.691-.707-.718.899-.895-.19 1.613zm-1.358-1.36-1.342-1.334h2.684l-1.341 1.334zm-4.129 0-1.343-1.334h2.685l-1.342 1.334zm4.573 9.019H7.276c-.015-.002-.028-.014-.029-.029l-.118-1.013h5.318l-.115 1.013a.033.033 0 0 1-.033.029h-.005zm3.883-14.71h-1.474a.463.463 0 0 0-.505.458v.001a.46.46 0 0 0 .507.458h-.002.525v2.483a.033.033 0 0 1-.033.029H4.367a.033.033 0 0 1-.033-.029v-2.483h8.387a.462.462 0 0 0 .298-.767.46.46 0 0 0-.296-.149H3.406a.527.527 0 0 1-.572-.522v-.002a.522.522 0 0 1 .575-.519h-.002.961a.46.46 0 0 0 .002-.915h-.848a4.5 4.5 0 0 1 .929-3.683l-.007.008c.296.92 1.059 2.179 2.964 3.18 1.79.933 4.162 1.41 7.045 1.41h1.693a.528.528 0 0 1 .526.307l.001.003a.522.522 0 0 1-.53.732h.031zm3.682 12.741-.342.525.008.004.335-.529zm3.681.176.627-.013-.017-.724-.714.12.105.617zm.043 1.927.16.606.477-.126-.011-.493-.627.013zm-4.831.093.141-.611h-.004l-.136.611zm-2.385-1.065zm-.862-1.958.626.003v-.003h-.626zm.299-1.369-.562-.277v.002l.562.275zm1.92-1.639.223.586.002-.001-.224-.585zm6.153-.16.624.049.042-.529-.515-.127-.151.607zm-.153 1.964-.116.615.686.131.055-.697-.625-.048zm-1.669-.803c-.94 0-1.731.1-2.307.354-.296.13-.564.313-.76.572a1.46 1.46 0 0 0-.299.89v.016-.001h1.253c0-.073.017-.115.044-.149a.677.677 0 0 1 .267-.181c.337-.148.916-.248 1.802-.248v-1.253zm-3.367 1.831c0 .644.289 1.176.829 1.528l.683-1.049a.51.51 0 0 1-.259-.478h-1.253zm.836 1.532c.511.323 1.187.445 1.944.445v-1.253c-.654 0-1.052-.11-1.274-.251l-.669 1.058zm1.944.446c.743 0 1.469-.061 2.178-.18l-.21-1.235c-.585.103-1.259.163-1.947.163h-.022.001v1.253zm1.447-.784.042 1.927 1.253-.028-.043-1.927-1.252.028zm.509 1.307a9.28 9.28 0 0 1-2.372.285v1.252c.96 0 1.858-.107 2.691-.327l-.319-1.211zm-2.371.285c-.884 0-1.6-.07-2.159-.199l-.281 1.221c.681.157 1.499.23 2.44.23v-1.252zm-2.164-.199c-.598-.133-1.029-.275-1.317-.416l-.55 1.125c.413.202.952.371 1.594.514l.273-1.223zm-1.317-.416a3.84 3.84 0 0 1-.806-.518l.006.005-.81.955c.313.265.668.493 1.061.684l.549-1.125zm-.8-.515c-.426-.36-.644-.83-.64-1.476l-1.253-.006c-.005.985.352 1.819 1.085 2.438l.808-.957zm-.64-1.48c0-.421.082-.781.236-1.095l-1.126-.551a3.64 3.64 0 0 0-.364 1.6v.048-.002h1.252zm.235-1.093c.285-.579.788-1.029 1.581-1.331l-.445-1.171c-1.034.392-1.811 1.036-2.26 1.948l1.124.553zm1.583-1.33c.833-.32 1.763-.485 2.796-.485v-1.252c-1.168 0-2.252.186-3.245.568l.45 1.17zm2.796-.485c1.054 0 2.047.118 2.981.349l.301-1.215a13.27 13.27 0 0 0-3.216-.386h-.069.004v1.253zm2.507-.308-.152 1.963 1.249.098.152-1.964-1.248-.097zm.589 1.397a9.48 9.48 0 0 0-1.78-.189h-.006v1.253c.44 0 .957.053 1.553.166l.233-1.229zm6.11 1-.003.627.637.003-.007-.637-.627.007zm-.269-.813-.426.459.006.005.421-.463zm-1.559.061.434.452.004-.005-.438-.447zm-.379.74-.618-.101-.12.723.733.004.003-.627zm4.604 3.339.379.499.225-.171.021-.281-.625-.047zm-1.351.502-.135-.612-.003.001.138.611zm-4.697-.172-.213.589.005.002.208-.591zm-1.07-.568-.389.491.008.006.381-.497zm-.716-.899-.562.278.002.003.56-.28zm.734-3.798zm5.724-.679.25-.574-.006-.003-.244.577zm1.437 1.321-.563.274.002.003.561-.278zm.245 1.095.625.045.002-.023v-.023h-.627zm-.073 1.009-.003.627.585.003.042-.584-.624-.045zm-4.96-.025.003-.627-.817-.003.208.79.605-.16zm.71.875-.309.545.003.002.306-.547zm3.804-.214v-.626h-.125l-.115.048.241.578zm.33 0 .625.047.051-.674h-.675v.627zm-1.887-1.781c-.005-.453-.109-.939-.475-1.271l-.842.928c-.007-.007.008.002.025.056.019.057.037.153.039.301l1.253-.013zm-.47-1.265c-.328-.305-.76-.406-1.185-.406v1.253c.244 0 .318.059.333.071l.852-.918zm-1.184-.406c-.467 0-.9.147-1.24.479l.877.894c.068-.067.168-.12.362-.12v-1.253zm-1.236.474a1.901 1.901 0 0 0-.562 1.08l-.001.011 1.236.203a.66.66 0 0 1 .195-.39l-.867-.904zm.052 1.819 2.208.012.007-1.252-2.208-.013-.007 1.252zm4.23 2.214c-.137.104-.472.248-1.108.388l.269 1.224c.661-.146 1.227-.335 1.595-.615l-.756-.997zm-1.111.389a7.72 7.72 0 0 1-1.75.205h-.002v1.253c.662 0 1.339-.08 2.028-.236l-.276-1.221zm-1.752.204c-.59 0-1.076-.028-1.464-.08l-.168 1.241a12.45 12.45 0 0 0 1.631.092v-1.253zm-1.463-.08a5.721 5.721 0 0 1-1.135-.275l-.417 1.181c.455.16.917.273 1.384.335l.168-1.241zm-1.13-.273a3.324 3.324 0 0 1-.911-.483l.009.006-.762.994a4.54 4.54 0 0 0 1.238.66l.427-1.177zm-.896-.472a2.017 2.017 0 0 1-.539-.675l-.005-.012-1.12.56c.22.441.514.815.887 1.11l.777-.982zm-.543-.684c-.131-.267-.211-.61-.211-1.05h-1.253c0 .588.105 1.129.34 1.605l1.123-.556zm-.21-1.051c0-.44.08-.829.23-1.176l-1.149-.499a4.096 4.096 0 0 0-.334 1.634v.043-.002h1.253zm.23-1.175c.158-.364.351-.632.57-.827l-.834-.936a3.57 3.57 0 0 0-.885 1.264l1.149.499zm.57-.828c.674-.6 1.7-.947 3.179-.947v-1.253c-1.659 0-3.03.39-4.013 1.266l.834.935zm3.179-.947c.664 0 1.29.126 1.884.378l.489-1.154a5.918 5.918 0 0 0-2.35-.478h-.025.001v1.253zm1.878.375c.555.242.913.584 1.125 1.021l1.126-.547c-.359-.739-.958-1.276-1.75-1.622l-.501 1.149zm1.126 1.024c.117.237.179.505.179.817h1.253c0-.487-.101-.947-.31-1.371l-1.123.554zm.181.772-.073 1.009 1.25.091.073-1.009-1.25-.091zm.555.428-4.96-.024-.007 1.253 4.96.024.007-1.253zm-5.569.762c.147.555.504.976 1.007 1.26l.616-1.091c-.248-.14-.362-.302-.412-.488l-1.211.319zm1.009 1.262c.509.284 1.144.397 1.853.397v-1.252c-.595 0-.99-.099-1.241-.239l-.611 1.094zm1.853.397c.762 0 1.599-.206 2.499-.58l-.482-1.156c-.805.335-1.474.484-2.016.484v1.252zm2.257-.532h.331v-1.252h-.33v1.252zm-.294-.673-.116 1.554 1.25.093.116-1.553-1.25-.093z"/></symbol><symbol id="icon-mobile-img" viewBox="0 0 32 32"><path d="M26.733 14H5.267c-.7 0-1.267.425-1.267.95v.1c0 .525.567.95 1.267.95h21.466c.7 0 1.267-.425 1.267-.95v-.1c0-.525-.567-.95-1.267-.95zm0 6H5.267c-.7 0-1.267.425-1.267.95v.1c0 .525.567.95 1.267.95h21.466c.7 0 1.267-.425 1.267-.95v-.1c0-.525-.567-.95-1.267-.95zm0-12H5.267C4.567 8 4 8.425 4 8.95v.1c0 .525.567.95 1.267.95h21.466c.7 0 1.267-.425 1.267-.95v-.1c0-.525-.567-.95-1.267-.95z"/></symbol><symbol id="icon-close" viewBox="0 0 32 32"><path d="M23.884 6.706 16 14.59 8.116 6.706a.996.996 0 0 0-1.672.736c0 .26.099.497.262.674l-.001-.001 7.88 7.884-7.882 7.882a.998.998 0 0 0 1.41 1.412l7.886-7.882 7.884 7.884a.996.996 0 0 0 1.672-.736.992.992 0 0 0-.262-.674l.001.001-7.884-7.884 7.884-7.886a.998.998 0 0 0-1.41-1.412v.002z"/></symbol><symbol id="icon-arrow-right" viewBox="0 0 32 32"><path d="M10.587 3.272c-.361.362-.585.861-.585 1.413s.223 1.051.585 1.413l9.899 9.901-9.899 9.901a2 2 0 0 0 2.828 2.825l-.001.001 11.315-11.315c.361-.362.585-.861.585-1.413s-.224-1.052-.585-1.413L13.414 3.27c-.362-.361-.861-.585-1.413-.585s-1.052.224-1.413.585z"/></symbol><symbol id="icon-arrow" viewBox="0 0 82 32"><path fill="#fcfcfc" d="M81.414 17.414c.362-.362.586-.862.586-1.414s-.224-1.052-.586-1.414L68.686 1.858a2 2 0 1 0-2.829 2.827l.001.001L77.172 16 65.858 27.314a2 2 0 0 0 2.829 2.827l-.001.001 12.728-12.728zM0 18h80v-4H0v4z" style="fill:var(--color1,#fcfcfc)"/></symbol><symbol id="icon-arrow-1" viewBox="0 0 82 32"><path d="M81.414 17.414c.362-.362.586-.862.586-1.414s-.224-1.052-.586-1.414L68.686 1.858a2 2 0 1 0-2.829 2.827l.001.001L77.172 16 65.858 27.314a2 2 0 0 0 2.829 2.827l-.001.001 12.728-12.728zM0 18h80v-4H0v4z"/></symbol></defs></svg>