<svg aria-hidden="true" style="width:0;height:0;position:absolute;overflow:hidden" xmlns="http://www.w3.org/2000/svg"><defs><symbol id="icon-logo" viewBox="0 0 34 32"><path d="M17.184 14.109c1.613-4.366-1.728-6.756-3.942-8.327-.424-.321-.847-.621-1.19-.895A4.17 4.17 0 0 1 10.726.546l-.007.029a.458.458 0 0 0-.348-.566l-.003-.001a.46.46 0 0 0-.249.019l.003-.001a7.497 7.497 0 0 0-2.064 1.23l.011-.009a4.867 4.867 0 0 0-1.901 3.846v.001a5.607 5.607 0 0 0-1.096 1.144 4.158 4.158 0 0 0-.808 2.691v-.01a5.3 5.3 0 0 0-1.608 5.021l-.006-.035a1.438 1.438 0 0 0-.638 1.629l-.002-.01a1.44 1.44 0 0 0 1.382 1.046h.042v2.485a.95.95 0 0 0 .949.949h.745l1.208 10.429a.947.947 0 0 0 .94.845H12.301a.96.96 0 0 0 .949-.84v-.005l1.207-10.429h.741a.953.953 0 0 0 .952-.95V16.57h.029a1.446 1.446 0 0 0 1.333-2.005l.004.01a1.401 1.401 0 0 0-.316-.47l-.013.004zM6.315 6.188c.61 2.285 2.964 3.183 5.111 3.987a.461.461 0 1 0 .329-.844h-.003C9.44 8.456 7.259 7.642 7.095 5.307A3.891 3.891 0 0 1 8.63 1.966l.01-.007a6.926 6.926 0 0 1 1.033-.709 5.387 5.387 0 0 0 .001.898l-.001-.02a4.996 4.996 0 0 0 1.779 3.468l.008.006c.351.3.787.608 1.27.937 1.114.798 2.38 1.689 3.184 2.897.503.717.803 1.607.803 2.568a4.48 4.48 0 0 1-.352 1.748l.011-.03h-1.871c-3.858 0-8.291-1.064-9.167-4.045a3.399 3.399 0 0 1 .996-3.464l.003-.003-.02-.021zm3.472 14.395 1.415 1.41-1.415 1.411-1.415-1.419 1.415-1.401zm3.243 3.702-1.168 1.165-1.415-1.411 1.415-1.406 1.228 1.221-.059.43zM9.787 27.52l-1.415-1.411 1.415-1.41 1.415 1.41-1.415 1.411zm-.648-3.471L7.725 25.46l-1.176-1.174-.051-.422 1.227-1.221 1.415 1.406zm-2.065 2.06-.284.283-.072-.642.355.359zm-.149 1.445.8-.798 1.555 1.563a.829.829 0 0 0 .029.093H7.022l-.098-.857zm4.929-.799.8.798-.098.845h-2.349l1.647-1.642zm.932-.362-.284-.284.36-.359-.076.642zm.422-3.691-.707-.718.899-.895-.19 1.613zm-1.358-1.36-1.342-1.334h2.684l-1.341 1.334zm-4.129 0-1.343-1.334h2.685l-1.342 1.334zm4.573 9.019H7.276c-.015-.002-.028-.014-.029-.029l-.118-1.013h5.318l-.115 1.013a.033.033 0 0 1-.033.029h-.005zm3.883-14.71h-1.474a.463.463 0 0 0-.505.458v.001a.46.46 0 0 0 .507.458h-.002.525v2.483a.033.033 0 0 1-.033.029H4.367a.033.033 0 0 1-.033-.029v-2.483h8.387a.462.462 0 0 0 .298-.767.46.46 0 0 0-.296-.149H3.406a.527.527 0 0 1-.572-.522v-.002a.522.522 0 0 1 .575-.519h-.002.961a.46.46 0 0 0 .002-.915h-.848a4.5 4.5 0 0 1 .929-3.683l-.007.008c.296.92 1.059 2.179 2.964 3.18 1.79.933 4.162 1.41 7.045 1.41h1.693a.528.528 0 0 1 .526.307l.001.003a.522.522 0 0 1-.53.732h.031zm3.682 12.741-.342.525.008.004.335-.529zm3.681.176.627-.013-.017-.724-.714.12.105.617zm.043 1.927.16.606.477-.126-.011-.493-.627.013zm-4.831.093.141-.611h-.004l-.136.611zm-2.385-1.065zm-.862-1.958.626.003v-.003h-.626zm.299-1.369-.562-.277v.002l.562.275zm1.92-1.639.223.586.002-.001-.224-.585zm6.153-.16.624.049.042-.529-.515-.127-.151.607zm-.153 1.964-.116.615.686.131.055-.697-.625-.048zm-1.669-.803c-.94 0-1.731.1-2.307.354-.296.13-.564.313-.76.572a1.46 1.46 0 0 0-.299.89v.016-.001h1.253c0-.073.017-.115.044-.149a.677.677 0 0 1 .267-.181c.337-.148.916-.248 1.802-.248v-1.253zm-3.367 1.831c0 .644.289 1.176.829 1.528l.683-1.049a.51.51 0 0 1-.259-.478h-1.253zm.836 1.532c.511.323 1.187.445 1.944.445v-1.253c-.654 0-1.052-.11-1.274-.251l-.669 1.058zm1.944.446c.743 0 1.469-.061 2.178-.18l-.21-1.235c-.585.103-1.259.163-1.947.163h-.022.001v1.253zm1.447-.784.042 1.927 1.253-.028-.043-1.927-1.252.028zm.509 1.307a9.28 9.28 0 0 1-2.372.285v1.252c.96 0 1.858-.107 2.691-.327l-.319-1.211zm-2.371.285c-.884 0-1.6-.07-2.159-.199l-.281 1.221c.681.157 1.499.23 2.44.23v-1.252zm-2.164-.199c-.598-.133-1.029-.275-1.317-.416l-.55 1.125c.413.202.952.371 1.594.514l.273-1.223zm-1.317-.416a3.84 3.84 0 0 1-.806-.518l.006.005-.81.955c.313.265.668.493 1.061.684l.549-1.125zm-.8-.515c-.426-.36-.644-.83-.64-1.476l-1.253-.006c-.005.985.352 1.819 1.085 2.438l.808-.957zm-.64-1.48c0-.421.082-.781.236-1.095l-1.126-.551a3.64 3.64 0 0 0-.364 1.6v.048-.002h1.252zm.235-1.093c.285-.579.788-1.029 1.581-1.331l-.445-1.171c-1.034.392-1.811 1.036-2.26 1.948l1.124.553zm1.583-1.33c.833-.32 1.763-.485 2.796-.485v-1.252c-1.168 0-2.252.186-3.245.568l.45 1.17zm2.796-.485c1.054 0 2.047.118 2.981.349l.301-1.215a13.27 13.27 0 0 0-3.216-.386h-.069.004v1.253zm2.507-.308-.152 1.963 1.249.098.152-1.964-1.248-.097zm.589 1.397a9.48 9.48 0 0 0-1.78-.189h-.006v1.253c.44 0 .957.053 1.553.166l.233-1.229zm6.11 1-.003.627.637.003-.007-.637-.627.007zm-.269-.813-.426.459.006.005.421-.463zm-1.559.061.434.452.004-.005-.438-.447zm-.379.74-.618-.101-.12.723.733.004.003-.627zm4.604 3.339.379.499.225-.171.021-.281-.625-.047zm-1.351.502-.135-.612-.003.001.138.611zm-4.697-.172-.213.589.005.002.208-.591zm-1.07-.568-.389.491.008.006.381-.497zm-.716-.899-.562.278.002.003.56-.28zm.734-3.798zm5.724-.679.25-.574-.006-.003-.244.577zm1.437 1.321-.563.274.002.003.561-.278zm.245 1.095.625.045.002-.023v-.023h-.627zm-.073 1.009-.003.627.585.003.042-.584-.624-.045zm-4.96-.025.003-.627-.817-.003.208.79.605-.16zm.71.875-.309.545.003.002.306-.547zm3.804-.214v-.626h-.125l-.115.048.241.578zm.33 0 .625.047.051-.674h-.675v.627zm-1.887-1.781c-.005-.453-.109-.939-.475-1.271l-.842.928c-.007-.007.008.002.025.056.019.057.037.153.039.301l1.253-.013zm-.47-1.265c-.328-.305-.76-.406-1.185-.406v1.253c.244 0 .318.059.333.071l.852-.918zm-1.184-.406c-.467 0-.9.147-1.24.479l.877.894c.068-.067.168-.12.362-.12v-1.253zm-1.236.474a1.901 1.901 0 0 0-.562 1.08l-.001.011 1.236.203a.66.66 0 0 1 .195-.39l-.867-.904zm.052 1.819 2.208.012.007-1.252-2.208-.013-.007 1.252zm4.23 2.214c-.137.104-.472.248-1.108.388l.269 1.224c.661-.146 1.227-.335 1.595-.615l-.756-.997zm-1.111.389a7.72 7.72 0 0 1-1.75.205h-.002v1.253c.662 0 1.339-.08 2.028-.236l-.276-1.221zm-1.752.204c-.59 0-1.076-.028-1.464-.08l-.168 1.241a12.45 12.45 0 0 0 1.631.092v-1.253zm-1.463-.08a5.721 5.721 0 0 1-1.135-.275l-.417 1.181c.455.16.917.273 1.384.335l.168-1.241zm-1.13-.273a3.324 3.324 0 0 1-.911-.483l.009.006-.762.994a4.54 4.54 0 0 0 1.238.66l.427-1.177zm-.896-.472a2.017 2.017 0 0 1-.539-.675l-.005-.012-1.12.56c.22.441.514.815.887 1.11l.777-.982zm-.543-.684c-.131-.267-.211-.61-.211-1.05h-1.253c0 .588.105 1.129.34 1.605l1.123-.556zm-.21-1.051c0-.44.08-.829.23-1.176l-1.149-.499a4.096 4.096 0 0 0-.334 1.634v.043-.002h1.253zm.23-1.175c.158-.364.351-.632.57-.827l-.834-.936a3.57 3.57 0 0 0-.885 1.264l1.149.499zm.57-.828c.674-.6 1.7-.947 3.179-.947v-1.253c-1.659 0-3.03.39-4.013 1.266l.834.935zm3.179-.947c.664 0 1.29.126 1.884.378l.489-1.154a5.918 5.918 0 0 0-2.35-.478h-.025.001v1.253zm1.878.375c.555.242.913.584 1.125 1.021l1.126-.547c-.359-.739-.958-1.276-1.75-1.622l-.501 1.149zm1.126 1.024c.117.237.179.505.179.817h1.253c0-.487-.101-.947-.31-1.371l-1.123.554zm.181.772-.073 1.009 1.25.091.073-1.009-1.25-.091zm.555.428-4.96-.024-.007 1.253 4.96.024.007-1.253zm-5.569.762c.147.555.504.976 1.007 1.26l.616-1.091c-.248-.14-.362-.302-.412-.488l-1.211.319zm1.009 1.262c.509.284 1.144.397 1.853.397v-1.252c-.595 0-.99-.099-1.241-.239l-.611 1.094zm1.853.397c.762 0 1.599-.206 2.499-.58l-.482-1.156c-.805.335-1.474.484-2.016.484v1.252zm2.257-.532h.331v-1.252h-.33v1.252zm-.294-.673-.116 1.554 1.25.093.116-1.553-1.25-.093z"/></symbol><symbol id="icon-mobile-img" viewBox="0 0 32 32"><path d="M26.733 14H5.267c-.7 0-1.267.425-1.267.95v.1c0 .525.567.95 1.267.95h21.466c.7 0 1.267-.425 1.267-.95v-.1c0-.525-.567-.95-1.267-.95zm0 6H5.267c-.7 0-1.267.425-1.267.95v.1c0 .525.567.95 1.267.95h21.466c.7 0 1.267-.425 1.267-.95v-.1c0-.525-.567-.95-1.267-.95zm0-12H5.267C4.567 8 4 8.425 4 8.95v.1c0 .525.567.95 1.267.95h21.466c.7 0 1.267-.425 1.267-.95v-.1c0-.525-.567-.95-1.267-.95z"/></symbol><symbol id="icon-close" viewBox="0 0 32 32"><path d="M23.884 6.706 16 14.59 8.116 6.706a.996.996 0 0 0-1.672.736c0 .26.099.497.262.674l-.001-.001 7.88 7.884-7.882 7.882a.998.998 0 0 0 1.41 1.412l7.886-7.882 7.884 7.884a.996.996 0 0 0 1.672-.736.992.992 0 0 0-.262-.674l.001.001-7.884-7.884 7.884-7.886a.998.998 0 0 0-1.41-1.412v.002z"/></symbol><symbol id="icon-arrow-right" viewBox="0 0 32 32"><path d="M10.587 3.272c-.361.362-.585.861-.585 1.413s.223 1.051.585 1.413l9.899 9.901-9.899 9.901a2 2 0 0 0 2.828 2.825l-.001.001 11.315-11.315c.361-.362.585-.861.585-1.413s-.224-1.052-.585-1.413L13.414 3.27c-.362-.361-.861-.585-1.413-.585s-1.052.224-1.413.585z"/></symbol><symbol id="icon-arrow" viewBox="0 0 82 32"><path fill="#fcfcfc" d="M81.414 17.414c.362-.362.586-.862.586-1.414s-.224-1.052-.586-1.414L68.686 1.858a2 2 0 1 0-2.829 2.827l.001.001L77.172 16 65.858 27.314a2 2 0 0 0 2.829 2.827l-.001.001 12.728-12.728zM0 18h80v-4H0v4z" style="fill:var(--color1,#fcfcfc)"/></symbol><symbol id="icon-arrow-1" viewBox="0 0 82 32"><path d="M81.414 17.414c.362-.362.586-.862.586-1.414s-.224-1.052-.586-1.414L68.686 1.858a2 2 0 1 0-2.829 2.827l.001.001L77.172 16 65.858 27.314a2 2 0 0 0 2.829 2.827l-.001.001 12.728-12.728zM0 18h80v-4H0v4z"/></symbol><symbol id="icon-cow" viewBox="0 0 32 32"><path d="M6.169.192c-.262.226-1.008 1.781-1.276 2.631-.318 1.052-.427 1.84-.384 2.93.058 1.556.449 2.736 1.31 3.968.225.324.406.601.406.624 0 .015-.138.03-.311.03-.747 0-2.144.248-3.215.571-1.7.512-2.7 1.405-2.7 2.405 0 .354.318.955.659 1.262.659.595 2.1 1.158 3.649 1.428.536.098 2.129.263 2.484.27.065 0 .087.347.087 1.481 0 .977.036 1.736.108 2.202.26 1.668 1.071 3.434 2.142 4.682l.37.428-.246.398c-.362.564-.5.992-.542 1.63-.109 1.533.846 2.893 2.693 3.848 3.517 1.826 8.984 1.112 11.033-1.443.999-1.248 1.115-2.676.325-3.968l-.246-.398.442-.533c.826-.992 1.361-1.984 1.766-3.239.34-1.067.471-2.097.471-3.728 0-.743.021-1.36.058-1.36.333-.007 1.933-.18 2.44-.27 1.556-.27 2.969-.827 3.649-1.428.34-.308.659-.909.659-1.262 0-1.113-1.129-2.014-3.229-2.556-.687-.18-1.983-.398-2.613-.436l-.297-.023.326-.451c.405-.548.912-1.616 1.108-2.315.55-2.021.21-4.373-.97-6.62-.493-.932-.834-1.15-1.231-.783-.152.144-.218.339-.362 1.045-.449 2.247-1.282 4.028-2.498 5.342l-.536.587H10.245l-.478-.518C8.58 5.315 7.718 3.467 7.269 1.212 7.124.505 7.059.311 6.907.168c-.239-.218-.471-.211-.738.022zm.925 4.457c.384.841.862 1.63 1.426 2.359l.449.579-.47.353c-.442.338-.854.82-1.173 1.369l-.137.247-.348-.474c-1.188-1.637-1.484-3.644-.854-5.726.304-1.006.297-.999.572-.127.131.42.377 1.06.536 1.42zm18.845-1.586c.262.728.414 1.569.414 2.444l-.001.093v-.005c0 1.367-.362 2.524-1.122 3.562l-.34.466-.253-.428a4.534 4.534 0 0 0-1.254-1.381l-.013-.009c-.196-.127-.347-.255-.347-.27 0-.022.137-.196.311-.383.804-.894 1.665-2.502 2.092-3.885.13-.428.26-.782.282-.782s.131.264.231.58zM22.24 8.556c.804.338 1.571 1.307 1.694 2.126.065.451.217.737.412.782.087.014.688.067 1.332.112 2.287.151 4.09.639 4.858 1.308.355.316.318.579-.108.902-.854.646-2.7 1.134-4.583 1.218-1.245.052-1.506.089-1.673.262-.123.128-.137.263-.137 1.623 0 1.842-.094 2.901-.326 3.757-.325 1.164-.97 2.405-1.723 3.284l-.311.361-.644-.384a7.832 7.832 0 0 0-2.335-.958l-.054-.011c-2.744-.654-5.778-.256-7.819 1.029l-.471.3-.297-.353c-.405-.474-1.043-1.488-1.296-2.059-.557-1.293-.724-2.345-.724-4.66 0-2.247.116-2.082-1.549-2.172-2.129-.113-3.751-.496-4.772-1.142-.753-.481-.629-.909.42-1.413 1.006-.489 2.388-.781 4.308-.901 1.492-.098 1.527-.121 1.665-.842.203-1.09 1.006-1.991 2.02-2.277.253-.075 1.672-.09 6.016-.083l5.684.015.412.173zm-4.069 15.556c1.774.436 3.099 1.247 3.671 2.254.138.233.196.474.224.842.029.458.008.571-.166.947-.804 1.707-3.757 2.833-6.762 2.578-3.612-.3-5.988-2.315-5.053-4.291.507-1.068 2.222-2.089 4.032-2.39.297-.044.594-.098.652-.113s.71-.015 1.449 0c1.005.023 1.491.068 1.954.173z"/><path d="M10.99 12.321c-.449.151-.753.347-1.158.752-.356.338-.384.736-.087.977.276.225.536.196.868-.098.42-.368.747-.518 1.152-.518.405-.008.716.135 1.15.518.333.293.594.323.869.098.145-.12.188-.218.188-.444 0-.232-.051-.338-.305-.593-.716-.721-1.78-.999-2.678-.692zm8.441-.008c-.462.173-1.057.564-1.295.857-.232.286-.24.609 0 .85.238.255.528.24.876-.045.854-.707 1.492-.729 2.281-.076.203.173.434.308.507.308.355 0 .644-.316.644-.692 0-.24-.601-.796-1.144-1.06-.601-.293-1.317-.346-1.868-.142zM12.04 26.224c-.21.203-.283.496-.174.729.08.188.203.263.702.398.225.06.319.135.398.323.101.249.109.249.667.271l.557.022v-.211c-.007-.3-.174-.736-.391-1.036-.253-.347-.695-.572-1.195-.617-.34-.03-.427-.015-.564.121zm6.914-.053c-.362.098-.883.587-1.028.969a2.525 2.525 0 0 0-.137.677v.008c-.014.323.014.398.188.556.427.376.992.083.992-.518 0-.293.217-.496.601-.572.405-.075.55-.24.557-.623 0-.504-.449-.699-1.173-.496z"/></symbol><symbol id="icon-ice-crema" viewBox="0 0 32 32"><path d="M16.108.107c.08.215.241 1.252.241 1.573v.011c0 .818-.318 1.561-.838 2.114l.001-.002c-.449.482-.898.749-1.975 1.185-1.198.489-1.694.783-2.256 1.339-.569.569-.904 1.191-1.024 1.922-.134.796 0 1.358.408 1.68l.207.16-.328.208c-.662.436-1.867 1.46-2.075 1.774-.402.603-.362 1.164.093 1.393l.214.107-.241.228c-.362.341-.436.576-.382 1.191.034.409.02.63-.073.964-.114.436-.114.442.033.75.148.301.563.683.938.844.18.08.187.107.228.723.02.356.053 1.486.08 2.517.02 1.031.068 1.975.107 2.089.034.12.161.281.276.361.388.268.656.556.829.891.195.382.409 1.319 1.058 4.559l.455 2.276.282.268c.535.529 1.56.77 3.247.77 1.693 0 2.704-.235 3.24-.764l.288-.274.414-2.109c.916-4.612.997-4.867 1.714-5.436.22-.181.436-.402.475-.502.047-.114.094-.991.127-2.316.027-1.178.068-2.343.094-2.591l.04-.448.436-.329c.548-.421.763-.803.763-1.392-.006-.696-.462-1.46-1.292-2.142l-.396-.321.195-.276c.81-1.117.301-2.664-1.205-3.694l-.455-.315.167-.174c.743-.796.864-3.173.241-4.827-.374-.984-1.232-2.055-2.283-2.845-.514-.388-1.934-1.245-2.06-1.245-.027 0-.027.047-.006.107zm1.928 2.337c.356.348.783.823.951 1.064.997 1.393 1.252 3.14.649 4.426-.241.522-.964 1.298-1.634 1.76-1.024.71-3.327 1.902-4.933 2.557-2.584 1.052-4.084 1.252-4.258.563-.068-.261.127-.468.951-1.018.742-.508 4.076-2.986 4.136-3.086.02-.027-.321.127-.749.341-1.452.737-2.142.596-2.108-.428.02-.743.556-1.587 1.298-2.068.188-.12.771-.388 1.307-.603 1.76-.709 2.296-1.071 2.892-1.961.356-.529.743-1.507.77-1.922.007-.147.034-.261.053-.261s.322.288.676.636zm1.827 7.606c.489.274.997.743 1.218 1.111.389.662.188 1.325-.649 2.169-.91.924-2.463 1.808-4.171 2.37-1.573.516-3.079.756-5.236.83l-1.339.047.871.053c1.124.074 3.3.007 4.143-.127 2.243-.356 4.151-1.065 5.516-2.042.308-.221.629-.402.716-.402.221 0 1.185.924 1.38 1.312.107.221.133.382.114.596-.1.891-1.186 1.366-3.803 1.68-3.2.382-7.384.007-9.172-.816-.844-.388-.984-.61-.77-1.198.067-.188.08-.409.053-.724-.034-.415-.027-.468.12-.622.335-.362.898-.569 2.96-1.092.723-.187 1.707-.482 2.175-.656 1.138-.415 3.274-1.493 4.264-2.156.931-.616 1.065-.643 1.607-.334zm-8.891 8.194c1.406.409 2.652.529 4.968.482 1.74-.033 2.812-.14 4.357-.415.316-.053.589-.1.623-.1.074 0 .053 2.571-.027 3.247-.087.716-.282 1.272-.489 1.406-.214.14-1.285.288-2.718.368-2.939.16-5.958 0-6.895-.375-.508-.207-.563-.476-.569-2.959 0-1.653.013-1.881.1-1.847.053.02.348.107.649.194zm1.587 5.69c.482.06 1.004.12 1.164.14l.289.034-.255.281c-.328.355-.83 1.064-1.011 1.426-.207.415-.275.442-.582.275l-.261-.148-.147-.91a23.34 23.34 0 0 0-.216-1.217l.028.165c-.06-.173-.121-.173.99-.046zm7.137-.074c0 .013-.034.187-.068.382-.04.2-.207 1.292-.374 2.429-.341 2.377-.569 3.494-.777 3.869-.288.502-.978.796-2.095.891-.436.034-1.748-.053-1.821-.121-.053-.06 1.098-1.486 1.279-1.58.167-.094.213-.08.782.213.663.349.998.403.998.181s-.174-.436-.603-.729c-.395-.282-.535-.443-.535-.63 0-.053.194-.355.428-.669s.575-.817.749-1.118l.329-.542.3.041c.609.087.77.08.75-.053-.013-.068-.127-.261-.255-.422-.127-.167-.228-.335-.228-.368 0-.127.622-1.299.824-1.547.174-.214.315-.322.315-.228zm-4.184.536c.334.221 1.593 1.313 1.673 1.446.034.06-1.258 2.082-1.513 2.37-.027.034-.167-.033-.308-.14a20.117 20.117 0 0 0-1.08-.752l-.085-.052-.904-.596.542-.917c.964-1.613.944-1.587 1.151-1.587.107 0 .341.1.523.228zm2.537.24c-.235.288-.428.469-.508.469-.174 0-.456-.154-.931-.502l-.396-.288.791-.047c.348-.013.665-.034.98-.065l-.064.005c.536-.087.536-.08.128.428zm-5.061 3.221c.616.241 1.66.81 1.962 1.065.214.173.214.187.127.401a6.654 6.654 0 0 1-.43.741l.015-.024a10.9 10.9 0 0 0-.417.682l-.032.061c-.213.415-.281.449-.723.329-.476-.141-.729-.382-.863-.818-.181-.609-.469-2.329-.436-2.597.013-.1.294-.04.796.161z"/></symbol><symbol id="icon-weight" viewBox="0 0 32 32"><path d="M14.178.547c-3.974.589-7.247 2.796-8.452 5.685-.384.913-.487 1.474-.487 2.573.007.812.036 1.114.163 1.552.258.862.443 1.301.827 1.92l.356.574-.4.489c-3.154 3.924-3.501 9.444-.871 13.793.982 1.632 2.586 3.235 4.151 4.169l.466.273 12.743-.108.302-.165c1.057-.596 2.548-1.926 3.383-3.004a12.51 12.51 0 0 0 2.413-5.546l.01-.074c.118-.74.118-2.933-.007-3.63-.377-2.148-1.182-3.988-2.452-5.62-.244-.309-.436-.568-.436-.589 0-.014.133-.237.288-.489a7.623 7.623 0 0 0 .85-1.907l.014-.055c.199-.719.199-2.516 0-3.235-.709-2.551-2.836-4.679-5.843-5.851-.843-.331-2.284-.683-3.214-.797-.864-.1-2.999-.08-3.804.043zm4.498 1.171c3.945.769 6.834 3.184 7.365 6.16.118.668.044 1.804-.155 2.436-.2.618-.569 1.344-1.004 1.963-.178.252-.325.539-.325.632s.155.338.377.582c1.846 2.049 2.821 4.614 2.821 7.388-.007 3.156-1.219 5.923-3.553 8.093-.399.373-.968.841-1.271 1.042l-.554.373-12.211.051-.473-.302c-1.714-1.113-3.258-2.953-4.115-4.908-1.078-2.472-1.189-5.34-.31-7.913.466-1.337 1.086-2.429 2.031-3.58.385-.46.562-.733.562-.862 0-.108-.192-.46-.444-.827-.886-1.287-1.248-2.717-1.034-4.068.222-1.365.842-2.487 1.987-3.6 1.493-1.445 3.576-2.402 6.021-2.761 1.012-.151 3.25-.093 4.284.1z"/><path d="M14.509 2.983c-3.029.496-5.4 2.178-6.176 4.385-.178.496-.206.69-.206 1.401s.029.907.206 1.402c.111.316.318.756.459.978.384.618.554.64 1.315.18a11.719 11.719 0 0 1 3.727-1.474l.078-.014c.916-.187 2.674-.258 3.671-.143 1.558.18 3.251.74 4.602 1.538.385.222.776.409.872.409.562 0 1.278-1.617 1.278-2.875 0-2.796-2.675-5.189-6.464-5.786-.805-.129-2.586-.129-3.361 0zm3.656 1.15c1.271.273 2.438.791 3.317 1.474 1.182.913 1.817 2.185 1.714 3.413-.037.489-.222 1.15-.332 1.222-.029.014-.444-.158-.916-.388a14.138 14.138 0 0 0-3.131-1.081l-.097-.018c-.687-.143-.975-.165-2.512-.158-1.514 0-1.831.022-2.489.158a13.26 13.26 0 0 0-3.195 1.099l.078-.035c-1.101.524-1.042.532-1.242-.116-.258-.84-.096-1.955.407-2.796.266-.445.996-1.186 1.529-1.552 1.012-.698 1.899-1.013 3.804-1.359.391-.071 2.563.029 3.065.137zm-1.202 9.271c-.207.26-.207.504.007.712.14.137.281.172.791.209a6.489 6.489 0 0 1 2.815.865l-.031-.017c.606.359 1.529 1.229 1.943 1.854.613.898 1.034 2.185 1.034 3.134 0 .331.03.431.185.574.236.237.547.237.776 0 .163-.165.169-.208.125-.912-.207-3.479-3.184-6.382-6.744-6.578l-.74-.043-.162.202z"/></symbol></defs></svg>